# xmcd
#
# Track frame offsets:
#	150
#	24216
#	42520
#	60563
#	76776
#	91763
#	109265
#	125910
#	145883
#	161446
#
# Disc length: 2355 seconds
#
# Revision: 2
# Processed by: cddbd v1.4PL0 Copyright (c) Steve Scherf et al.
# Submitted via: CDmax 1.8
#
DISCID=7a09310a
DTITLE=Charlie Daniels - Super Hits
DYEAR=1900
DGENRE=Country
TTITLE0=Uneasy Rider
TTITLE1=Long Haired Country Boy
TTITLE2=The South's Gonna Do It
TTITLE3=The Devil Went Down To Georgia
TTITLE4=In America
TTITLE5=Still In Saigon
TTITLE6=Drinkin' My Baby Goodbye
TTITLE7=Uneasy Rider '88
TTITLE8=Boogie Woogie Fiddle Country Blues
TTITLE9=Simple Man
EXTD=
EXTT0=
EXTT1=
EXTT2=
EXTT3=
EXTT4=
EXTT5=
EXTT6=
EXTT7=
EXTT8=
EXTT9=
PLAYORDER=
